{"accessors" : [{"bufferView" : 0, "byteOffset" : 0, "componentType" : 5123, "count" : 2796, "type" : "SCALAR", "max" : [2455], "min" : [0]}, {"bufferView" : 1, "byteOffset" : 0, "componentType" : 5126, "count" : 2456, "type" : "VEC3", "max" : [0.0961887463927269, 0.003569049062207341, 0.15985459089279175], "min" : [-0.09607253968715668, -0.2878257632255554, -0.032180994749069214], "name" : "POSITION"}, {"bufferView" : 1, "byteOffset" : 12, "componentType" : 5126, "count" : 2456, "type" : "VEC3", "max" : [0.9982521533966064, 0.9943114519119263, 0.9999299049377441], "min" : [-0.9986478686332703, -0.9926713705062866, -0.9999005794525146], "name" : "NORMAL"}, {"bufferView" : 1, "byteOffset" : 24, "componentType" : 5126, "count" : 2456, "type" : "VEC2", "max" : [0.9902610182762146, 0.59865403175354], "min" : [0.5370540022850037, 0.24302899837493896], "name" : "TEXCOORD_0"}, {"bufferView" : 0, "byteOffset" : 5592, "componentType" : 5123, "count" : 4344, "type" : "SCALAR", "max" : [3819], "min" : [0]}, {"bufferView" : 2, "byteOffset" : 0, "componentType" : 5126, "count" : 3820, "type" : "VEC3", "max" : [0.36036401987075806, -0.34543707966804504, 0.4235743284225464], "min" : [-0.36036401987075806, -0.9999998807907104, -0.2899342179298401], "name" : "POSITION"}, {"bufferView" : 2, "byteOffset" : 12, "componentType" : 5126, "count" : 3820, "type" : "VEC3", "max" : [0.99755859375, 0.9950248599052429, 0.9999797940254211], "min" : [-0.9975553154945374, -0.9988613128662109, -0.9992665648460388], "name" : "NORMAL"}, {"bufferView" : 2, "byteOffset" : 24, "componentType" : 5126, "count" : 3820, "type" : "VEC2", "max" : [0.9300479888916016, 0.9956240057945251], "min" : [0.005553000140935183, 0.064333975315094], "name" : "TEXCOORD_0"}, {"bufferView" : 0, "byteOffset" : 14280, "componentType" : 5123, "count" : 2508, "type" : "SCALAR", "max" : [2212], "min" : [0]}, {"bufferView" : 3, "byteOffset" : 0, "componentType" : 5126, "count" : 2213, "type" : "VEC3", "max" : [0.11991851776838303, 0.09027563035488129, 0.18316635489463806], "min" : [-0.11991867423057556, -0.3448072075843811, -0.05758107081055641], "name" : "POSITION"}, {"bufferView" : 3, "byteOffset" : 12, "componentType" : 5126, "count" : 2213, "type" : "VEC3", "max" : [0.9962002635002136, 1.0000044107437134, 0.999318540096283], "min" : [-0.9962000250816345, -1.0000044107437134, -0.9962010383605957], "name" : "NORMAL"}, {"bufferView" : 3, "byteOffset" : 24, "componentType" : 5126, "count" : 2213, "type" : "VEC2", "max" : [0.9161810278892517, 0.6065800189971924], "min" : [0.009305000305175781, 0.06375998258590698], "name" : "TEXCOORD_0"}, {"bufferView" : 0, "byteOffset" : 19296, "componentType" : 5123, "count" : 2022, "type" : "SCALAR", "max" : [1833], "min" : [0]}, {"bufferView" : 4, "byteOffset" : 0, "componentType" : 5126, "count" : 1834, "type" : "VEC3", "max" : [0.08189325034618378, 0.40137389302253723, 0.1436883807182312], "min" : [-0.08041401207447052, 0.09027563035488129, -0.015940405428409576], "name" : "POSITION"}, {"bufferView" : 4, "byteOffset" : 12, "componentType" : 5126, "count" : 1834, "type" : "VEC3", "max" : [1.0000044107437134, 0.9999523162841797, 1.0000044107437134], "min" : [-1.0000044107437134, -1.0000044107437134, -1.0000044107437134], "name" : "NORMAL"}, {"bufferView" : 4, "byteOffset" : 24, "componentType" : 5126, "count" : 1834, "type" : "VEC2", "max" : [0.8607249855995178, 0.20431500673294067], "min" : [0.007608999963849783, 0.004379987716674805], "name" : "TEXCOORD_0"}, {"bufferView" : 0, "byteOffset" : 23340, "componentType" : 5123, "count" : 1482, "type" : "SCALAR", "max" : [1350], "min" : [0]}, {"bufferView" : 5, "byteOffset" : 0, "componentType" : 5126, "count" : 1351, "type" : "VEC3", "max" : [0.10337650030851364, 1, 0.1650579869747162], "min" : [-0.10337606817483902, 0.4022209644317627, -0.03855346515774727], "name" : "POSITION"}, {"bufferView" : 5, "byteOffset" : 12, "componentType" : 5126, "count" : 1351, "type" : "VEC3", "max" : [1.0000044107437134, 0.99976646900177, 0.9999982714653015], "min" : [-1.0000044107437134, -0.9779515266418457, -1.0000044107437134], "name" : "NORMAL"}, {"bufferView" : 5, "byteOffset" : 24, "componentType" : 5126, "count" : 1351, "type" : "VEC2", "max" : [0.9935950040817261, 0.7365239858627319], "min" : [0.26425498723983765, 0.17215698957443237], "name" : "TEXCOORD_0"}, {"bufferView" : 0, "byteOffset" : 26304, "componentType" : 5123, "count" : 4260, "type" : "SCALAR", "max" : [3836], "min" : [0]}, {"bufferView" : 6, "byteOffset" : 0, "componentType" : 5126, "count" : 3837, "type" : "VEC3", "max" : [0.08105761557817459, 0.9139667749404907, 0.06553803384304047], "min" : [0.05349951609969139, 0.4844887852668762, 0.004610252100974321], "name" : "POSITION"}, {"bufferView" : 6, "byteOffset" : 12, "componentType" : 5126, "count" : 3837, "type" : "VEC3", "max" : [1.0000038146972656, 1.0000044107437134, 0.9718469381332397], "min" : [-0.5154258608818054, -1.0000044107437134, -0.9612888693809509], "name" : "NORMAL"}, {"bufferView" : 6, "byteOffset" : 24, "componentType" : 5126, "count" : 3837, "type" : "VEC2", "max" : [0.7686840295791626, 0.6173909902572632], "min" : [0.6756640076637268, 0.456512987613678], "name" : "TEXCOORD_0"}, {"bufferView" : 0, "byteOffset" : 34824, "componentType" : 5123, "count" : 1296, "type" : "SCALAR", "max" : [1206], "min" : [0]}, {"bufferView" : 7, "byteOffset" : 0, "componentType" : 5126, "count" : 1207, "type" : "VEC3", "max" : [0.04961242154240608, -0.5326667428016663, 0.04550245776772499], "min" : [-0.049612730741500854, -0.9567670226097107, -0.28070399165153503], "name" : "POSITION"}, {"bufferView" : 7, "byteOffset" : 12, "componentType" : 5126, "count" : 1207, "type" : "VEC3", "max" : [1.0000044107437134, 0.9206159710884094, 0.9582749605178833], "min" : [-1.0000044107437134, -0.8199566006660461, -0.989016056060791], "name" : "NORMAL"}, {"bufferView" : 7, "byteOffset" : 24, "componentType" : 5126, "count" : 1207, "type" : "VEC2", "max" : [0.9913420081138611, 0.9965000152587891], "min" : [0.27973800897598267, 0.03548401594161987], "name" : "TEXCOORD_0"}, {"bufferView" : 0, "byteOffset" : 37416, "componentType" : 5123, "count" : 5073, "type" : "SCALAR", "max" : [4636], "min" : [0]}, {"bufferView" : 8, "byteOffset" : 0, "componentType" : 5126, "count" : 4637, "type" : "VEC3", "max" : [0.07615681737661362, -0.34323588013648987, -0.17993797361850739], "min" : [-0.10223115235567093, -0.6344872713088989, -0.4235743284225464], "name" : "POSITION"}, {"bufferView" : 8, "byteOffset" : 12, "componentType" : 5126, "count" : 4637, "type" : "VEC3", "max" : [1.0000044107437134, 0.9999913573265076, 0.9949436187744141], "min" : [-1.0000044107437134, -0.99481201171875, -0.9998719096183777], "name" : "NORMAL"}, {"bufferView" : 8, "byteOffset" : 24, "componentType" : 5126, "count" : 4637, "type" : "VEC2", "max" : [0.950169026851654, 0.990913987159729], "min" : [0.006893999874591827, 0.015457987785339355], "name" : "TEXCOORD_0"}, {"bufferView" : 0, "byteOffset" : 47564, "componentType" : 5123, "count" : 1020, "type" : "SCALAR", "max" : [923], "min" : [0]}, {"bufferView" : 9, "byteOffset" : 0, "componentType" : 5126, "count" : 924, "type" : "VEC3", "max" : [0.05768853425979614, 0.26100245118141174, 0.11854908615350723], "min" : [-0.05768808349967003, 0.08979043364524841, 0.00492525938898325], "name" : "POSITION"}, {"bufferView" : 9, "byteOffset" : 12, "componentType" : 5126, "count" : 924, "type" : "VEC3", "max" : [1.0000044107437134, 1.0000044107437134, 0.9848129749298096], "min" : [-1.0000044107437134, -1.0000044107437134, -1.0000044107437134], "name" : "NORMAL"}, {"bufferView" : 9, "byteOffset" : 24, "componentType" : 5126, "count" : 924, "type" : "VEC2", "max" : [0.8212419748306274, 0.46504998207092285], "min" : [0.5741999745368958, 0.3494349718093872], "name" : "TEXCOORD_0"}, {"bufferView" : 0, "byteOffset" : 49604, "componentType" : 5123, "count" : 372, "type" : "SCALAR", "max" : [370], "min" : [0]}, {"bufferView" : 10, "byteOffset" : 0, "componentType" : 5126, "count" : 371, "type" : "VEC3", "max" : [0.03766236826777458, 0.020701754838228226, 0.10023096203804016], "min" : [-0.035950668156147, -0.34628450870513916, 0.02548244222998619], "name" : "POSITION"}, {"bufferView" : 10, "byteOffset" : 12, "componentType" : 5126, "count" : 371, "type" : "VEC3", "max" : [0.9848111867904663, 1.0000044107437134, 1.0000044107437134], "min" : [-0.9848101735115051, -1.0000044107437134, -1.0000044107437134], "name" : "NORMAL"}, {"bufferView" : 10, "byteOffset" : 24, "componentType" : 5126, "count" : 371, "type" : "VEC2", "max" : [0.9939690232276917, 0.46122199296951294], "min" : [0.5405750274658203, 0.34991902112960815], "name" : "TEXCOORD_0"}], "asset" : {"generator" : "Aspose.3D 22.10", "version" : "2.0"}, "buffers" : [{"uri" : "data:application/octet-stream;base64,", "byteLength" : 855928}], "bufferViews" : [{"buffer" : 0, "byteOffset" : 0, "byteLength" : 50348, "target" : 34963}, {"buffer" : 0, "byteOffset" : 50352, "byteLength" : 89472, "byteStride" : 32, "target" : 34962}, {"buffer" : 0, "byteOffset" : 139828, "byteLength" : 139008, "byteStride" : 32, "target" : 34962}, {"buffer" : 0, "byteOffset" : 278840, "byteLength" : 80256, "byteStride" : 32, "target" : 34962}, {"buffer" : 0, "byteOffset" : 359100, "byteLength" : 64704, "byteStride" : 32, "target" : 34962}, {"buffer" : 0, "byteOffset" : 423808, "byteLength" : 47424, "byteStride" : 32, "target" : 34962}, {"buffer" : 0, "byteOffset" : 471236, "byteLength" : 136320, "byteStride" : 32, "target" : 34962}, {"buffer" : 0, "byteOffset" : 607560, "byteLength" : 41472, "byteStride" : 32, "target" : 34962}, {"buffer" : 0, "byteOffset" : 649036, "byteLength" : 162336, "byteStride" : 32, "target" : 34962}, {"buffer" : 0, "byteOffset" : 811376, "byteLength" : 32640, "byteStride" : 32, "target" : 34962}, {"buffer" : 0, "byteOffset" : 844020, "byteLength" : 11904, "byteStride" : 32, "target" : 34962}], "images" : [{"uri" : "data:image/png;base64,"}, {"uri" : "data:image/png;base64,"}, {"uri" : "data:image/png;base64,"}], "materials" : [{"name" : "Bong", "pbrMetallicRoughness" : {"baseColorFactor" : [1, 1, 1, 1], "baseColorTexture" : {"index" : 2, "texCoord" : 0}, "metallicFactor" : 1, "roughnessFactor" : 1, "metallicRoughnessTexture" : {"index" : 1, "texCoord" : 0}}, "normalTexture" : {"index" : 0, "texCoord" : 0, "scale" : 1}, "occlusionTexture" : {"index" : 1, "texCoord" : 0, "strength" : 0}, "emissiveFactor" : [0, 0, 0], "alphaMode" : "OPAQUE", "doubleSided" : false}, {"name" : "Bong", "pbrMetallicRoughness" : {"baseColorFactor" : [1, 1, 1, 1], "baseColorTexture" : {"index" : 2, "texCoord" : 0}, "metallicFactor" : 1, "roughnessFactor" : 1, "metallicRoughnessTexture" : {"index" : 1, "texCoord" : 0}}, "normalTexture" : {"index" : 0, "texCoord" : 0, "scale" : 1}, "occlusionTexture" : {"index" : 1, "texCoord" : 0, "strength" : 0}, "emissiveFactor" : [0, 0, 0], "alphaMode" : "OPAQUE", "doubleSided" : false}, {"name" : "Bong", "pbrMetallicRoughness" : {"baseColorFactor" : [1, 1, 1, 1], "baseColorTexture" : {"index" : 2, "texCoord" : 0}, "metallicFactor" : 1, "roughnessFactor" : 1, "metallicRoughnessTexture" : {"index" : 1, "texCoord" : 0}}, "normalTexture" : {"index" : 0, "texCoord" : 0, "scale" : 1}, "occlusionTexture" : {"index" : 1, "texCoord" : 0, "strength" : 0}, "emissiveFactor" : [0, 0, 0], "alphaMode" : "OPAQUE", "doubleSided" : false}, {"name" : "Bong", "pbrMetallicRoughness" : {"baseColorFactor" : [1, 1, 1, 1], "baseColorTexture" : {"index" : 2, "texCoord" : 0}, "metallicFactor" : 1, "roughnessFactor" : 1, "metallicRoughnessTexture" : {"index" : 1, "texCoord" : 0}}, "normalTexture" : {"index" : 0, "texCoord" : 0, "scale" : 1}, "occlusionTexture" : {"index" : 1, "texCoord" : 0, "strength" : 0}, "emissiveFactor" : [0, 0, 0], "alphaMode" : "OPAQUE", "doubleSided" : false}, {"name" : "Bong", "pbrMetallicRoughness" : {"baseColorFactor" : [1, 1, 1, 1], "baseColorTexture" : {"index" : 2, "texCoord" : 0}, "metallicFactor" : 1, "roughnessFactor" : 1, "metallicRoughnessTexture" : {"index" : 1, "texCoord" : 0}}, "normalTexture" : {"index" : 0, "texCoord" : 0, "scale" : 1}, "occlusionTexture" : {"index" : 1, "texCoord" : 0, "strength" : 0}, "emissiveFactor" : [0, 0, 0], "alphaMode" : "OPAQUE", "doubleSided" : false}, {"name" : "Bong", "pbrMetallicRoughness" : {"baseColorFactor" : [1, 1, 1, 1], "baseColorTexture" : {"index" : 2, "texCoord" : 0}, "metallicFactor" : 1, "roughnessFactor" : 1, "metallicRoughnessTexture" : {"index" : 1, "texCoord" : 0}}, "normalTexture" : {"index" : 0, "texCoord" : 0, "scale" : 1}, "occlusionTexture" : {"index" : 1, "texCoord" : 0, "strength" : 0}, "emissiveFactor" : [0, 0, 0], "alphaMode" : "OPAQUE", "doubleSided" : false}, {"name" : "Bong", "pbrMetallicRoughness" : {"baseColorFactor" : [1, 1, 1, 1], "baseColorTexture" : {"index" : 2, "texCoord" : 0}, "metallicFactor" : 1, "roughnessFactor" : 1, "metallicRoughnessTexture" : {"index" : 1, "texCoord" : 0}}, "normalTexture" : {"index" : 0, "texCoord" : 0, "scale" : 1}, "occlusionTexture" : {"index" : 1, "texCoord" : 0, "strength" : 0}, "emissiveFactor" : [0, 0, 0], "alphaMode" : "OPAQUE", "doubleSided" : false}, {"name" : "Bong", "pbrMetallicRoughness" : {"baseColorFactor" : [1, 1, 1, 1], "baseColorTexture" : {"index" : 2, "texCoord" : 0}, "metallicFactor" : 1, "roughnessFactor" : 1, "metallicRoughnessTexture" : {"index" : 1, "texCoord" : 0}}, "normalTexture" : {"index" : 0, "texCoord" : 0, "scale" : 1}, "occlusionTexture" : {"index" : 1, "texCoord" : 0, "strength" : 0}, "emissiveFactor" : [0, 0, 0], "alphaMode" : "OPAQUE", "doubleSided" : false}, {"name" : "Bong", "pbrMetallicRoughness" : {"baseColorFactor" : [1, 1, 1, 1], "baseColorTexture" : {"index" : 2, "texCoord" : 0}, "metallicFactor" : 1, "roughnessFactor" : 1, "metallicRoughnessTexture" : {"index" : 1, "texCoord" : 0}}, "normalTexture" : {"index" : 0, "texCoord" : 0, "scale" : 1}, "occlusionTexture" : {"index" : 1, "texCoord" : 0, "strength" : 0}, "emissiveFactor" : [0, 0, 0], "alphaMode" : "OPAQUE", "doubleSided" : false}, {"name" : "Bong", "pbrMetallicRoughness" : {"baseColorFactor" : [1, 1, 1, 1], "baseColorTexture" : {"index" : 2, "texCoord" : 0}, "metallicFactor" : 1, "roughnessFactor" : 1, "metallicRoughnessTexture" : {"index" : 1, "texCoord" : 0}}, "normalTexture" : {"index" : 0, "texCoord" : 0, "scale" : 1}, "occlusionTexture" : {"index" : 1, "texCoord" : 0, "strength" : 0}, "emissiveFactor" : [0, 0, 0], "alphaMode" : "OPAQUE", "doubleSided" : false}], "meshes" : [{"primitives" : [{"attributes" : {"POSITION" : 1, "NORMAL" : 2, "TEXCOORD_0" : 3}, "indices" : 0, "material" : 0, "mode" : 4}]}, {"primitives" : [{"attributes" : {"POSITION" : 5, "NORMAL" : 6, "TEXCOORD_0" : 7}, "indices" : 4, "material" : 1, "mode" : 4}]}, {"primitives" : [{"attributes" : {"POSITION" : 9, "NORMAL" : 10, "TEXCOORD_0" : 11}, "indices" : 8, "material" : 2, "mode" : 4}]}, {"primitives" : [{"attributes" : {"POSITION" : 13, "NORMAL" : 14, "TEXCOORD_0" : 15}, "indices" : 12, "material" : 3, "mode" : 4}]}, {"primitives" : [{"attributes" : {"POSITION" : 17, "NORMAL" : 18, "TEXCOORD_0" : 19}, "indices" : 16, "material" : 4, "mode" : 4}]}, {"primitives" : [{"attributes" : {"POSITION" : 21, "NORMAL" : 22, "TEXCOORD_0" : 23}, "indices" : 20, "material" : 5, "mode" : 4}]}, {"primitives" : [{"attributes" : {"POSITION" : 25, "NORMAL" : 26, "TEXCOORD_0" : 27}, "indices" : 24, "material" : 6, "mode" : 4}]}, {"primitives" : [{"attributes" : {"POSITION" : 29, "NORMAL" : 30, "TEXCOORD_0" : 31}, "indices" : 28, "material" : 7, "mode" : 4}]}, {"primitives" : [{"attributes" : {"POSITION" : 33, "NORMAL" : 34, "TEXCOORD_0" : 35}, "indices" : 32, "material" : 8, "mode" : 4}]}, {"primitives" : [{"attributes" : {"POSITION" : 37, "NORMAL" : 38, "TEXCOORD_0" : 39}, "indices" : 36, "material" : 9, "mode" : 4}]}], "nodes" : [{"mesh" : 0, "name" : "Inside_Detail_D3_LP"}, {"children" : [0], "name" : "Inside_Detail_D3_LP"}, {"mesh" : 1, "name" : "Base_LP"}, {"children" : [2], "name" : "Base_LP"}, {"mesh" : 2, "name" : "Middle_Base_LP"}, {"children" : [4], "name" : "Middle_Base_LP"}, {"mesh" : 3, "name" : "Middle_Base_Second_LP"}, {"children" : [6], "name" : "Middle_Base_Second_LP"}, {"mesh" : 4, "name" : "Top_Base_LP"}, {"children" : [8], "name" : "Top_Base_LP"}, {"mesh" : 5, "name" : "Letters_LP"}, {"children" : [10], "name" : "Letters_LP"}, {"mesh" : 6, "name" : "Smoke_Pipe_D1_LP"}, {"children" : [12], "name" : "Smoke_Pipe_D1_LP"}, {"mesh" : 7, "name" : "Pipe_Cap_LP"}, {"children" : [14], "name" : "Pipe_Cap_LP"}, {"mesh" : 8, "name" : "Inside_Detail_D1_LP"}, {"children" : [16], "name" : "Inside_Detail_D1_LP"}, {"mesh" : 9, "name" : "Inside_Detail_D2_LP"}, {"children" : [18], "name" : "Inside_Detail_D2_LP"}, {"children" : [1, 3, 5, 7, 9, 11, 13, 15, 17, 19], "matrix" : [13.8097829818726, 0, 0, 0, 0, 13.8097829818726, 0, 0, 0, 0, 13.8097829818726, 0, 5.01375102996826, 18.3215141296387, 2.24776983261108, 1], "name" : "root"}], "samplers" : [{"magFilter" : 9729, "minFilter" : 9985, "wrapS" : 10497, "wrapT" : 10497}, {"magFilter" : 9729, "minFilter" : 9985, "wrapS" : 10497, "wrapT" : 10497}, {"magFilter" : 9729, "minFilter" : 9985, "wrapS" : 10497, "wrapT" : 10497}], "scene" : 0, "scenes" : [{"nodes" : [20]}], "textures" : [{"sampler" : 0, "source" : 0, "name" : ""}, {"sampler" : 1, "source" : 1, "name" : ""}, {"sampler" : 2, "source" : 2, "name" : ""}]}